<svg width="483" height="309" viewBox="0 0 483 309" fill="none" xmlns="http://www.w3.org/2000/svg">
                <path d="M284.758 174.692C290.032 184.237 295.252 193.642 300.536 203.164C304.48 210.271 308.46 217.442 312.525 224.784L313.402 226.368L314.276 224.783C348.075 163.483 381.975 102.184 415.875 40.8839L416.696 39.4H415C367.984 39.4 333.909 39.3999 330.328 39.3004L330.314 39.3H330.3C330.265 39.3 330.221 39.2993 330.17 39.2985C329.554 39.2885 327.83 39.2605 326.11 40.2284L326.104 40.2317C324.471 41.1646 323.362 42.6518 322.338 44.393L322.332 44.4038L322.326 44.4148L322.322 44.4213C291.523 99.9193 260.725 155.416 229.727 210.812L229.726 210.814C219.328 229.511 201.73 260.707 192.232 277.303L192.231 277.305C188.206 284.363 184.529 290.75 181.356 296.263C179.185 300.033 177.25 303.395 175.6 306.282C137.151 238.914 98.7877 171.63 60.3102 104.147C40.8188 69.9621 21.2982 35.726 1.72247 1.40167C103.117 1.49988 176.585 1.49955 180.713 1.39998C180.747 1.3999 180.786 1.39952 180.829 1.3991C181.462 1.39295 182.991 1.3781 184.519 2.17679C185.672 2.84067 186.558 3.94304 187.631 5.79469C199.934 27.8004 212.537 49.6045 225.237 71.3051L225.243 71.3145C226.076 72.7029 226.4 73.8263 226.4 74.9C226.4 76.5941 225.536 77.9793 225.219 78.3753L225.185 78.4184L225.155 78.4649C223.294 81.4035 215.561 94.3825 205.01 112.495C183.454 74.571 167.95 47.17 166.277 44.1192L166.267 44.1021L166.257 44.0855C166.233 44.0451 166.204 43.9929 166.168 43.9304C165.815 43.3114 164.889 41.6863 163.107 40.6381L163.096 40.6318L163.086 40.6258C161.176 39.5649 159.265 39.5894 158.547 39.5986C158.49 39.5994 158.441 39.6 158.4 39.6H158.386L158.372 39.6004C154.792 39.6998 118.917 39.7 69.202 39.6L67.4745 39.5965L68.3318 41.0963C86.0817 72.146 103.807 103.196 121.532 134.246C139.257 165.296 156.982 196.346 174.732 227.396L175.608 228.929L176.472 227.389C181.069 219.195 185.266 211.9 189.466 204.6L189.467 204.599L189.472 204.59C226.972 137.89 264.571 71.0909 302.171 4.49162L302.172 4.49025C302.52 3.87085 303.211 3.17949 304.044 2.63895C304.889 2.0912 305.722 1.79999 306.3 1.8L306.304 1.79999C325.691 1.72613 343.221 1.82976 361.751 1.93932C393.359 2.12619 427.881 2.33029 479.506 1.69999H479.507H479.511H479.514H479.518H479.521H479.525H479.528H479.532H479.535H479.539H479.543H479.546H479.55H479.553H479.557H479.561H479.564H479.568H479.572H479.575H479.579H479.583H479.586H479.59H479.594H479.597H479.601H479.605H479.609H479.612H479.616H479.62H479.624H479.627H479.631H479.635H479.639H479.642H479.646H479.65H479.654H479.658H479.661H479.665H479.669H479.673H479.677H479.681H479.684H479.688H479.692H479.696H479.7H479.704H479.708H479.712H479.716H479.72H479.723H479.727H479.731H479.735H479.739H479.743H479.747H479.751H479.755H479.759H479.763H479.767H479.771H479.775H479.779H479.783H479.787H479.791H479.795H479.8H479.804H479.808H479.812H479.816H479.82H479.824H479.828H479.832H479.836H479.841H479.845H479.849H479.853H479.857H479.861H479.866H479.87H479.874H479.878H479.882H479.887H479.891H479.895H479.899H479.904H479.908H479.912H479.916H479.921H479.925H479.929H479.934H479.938H479.942H479.947H479.951H479.955H479.96H479.964H479.968H479.973H479.977H479.981H479.986H479.99H479.995H479.999H480.003H480.008H480.012H480.017H480.021H480.026H480.03H480.035H480.039H480.043H480.048H480.052H480.057H480.062H480.066H480.071H480.075H480.08H480.084H480.089H480.093H480.098H480.103H480.107H480.112H480.116H480.121H480.126H480.13H480.135H480.139H480.144H480.149H480.153H480.158H480.163H480.167H480.172H480.177H480.182H480.186H480.191H480.196H480.201H480.205H480.21H480.215H480.22H480.224H480.229H480.234H480.239H480.244H480.248H480.253H480.258H480.263H480.268H480.273H480.277H480.282H480.287H480.292H480.297H480.302H480.307H480.312H480.317H480.322H480.327H480.332H480.336H480.341H480.346H480.351H480.356H480.361H480.366H480.371H480.376H480.381H480.386H480.392H480.397H480.402H480.407H480.412H480.417H480.422H480.427H480.432H480.437H480.442H480.448H480.453H480.458H480.463H480.468H480.473H480.478H480.484H480.489H480.494H480.499H480.504H480.51H480.515H480.52H480.525H480.531H480.536H480.541H480.547H480.552H480.557H480.562H480.568H480.573H480.578H480.584H480.589H480.594H480.6H480.605H480.611H480.612C452.882 52.3059 425.153 102.888 397.423 153.469L397.357 153.59C369.667 204.1 341.976 254.61 314.286 305.145C285.95 255.07 265.448 219.069 263.755 216.281L263.729 216.239L263.7 216.2C263.446 215.861 262.617 214.599 262.699 213.053L262.7 213.026V213C262.7 211.634 263.435 210.554 263.7 210.2L263.767 210.111L263.812 210.009C264.432 208.626 266.867 204.391 270.697 197.962C274.315 191.887 279.141 183.917 284.758 174.692Z" fill="url(#paint0_linear)" stroke="url(#paint1_linear)" stroke-width="2"></path>
                <defs>
                    <linearGradient id="paint0_linear" x1="128.5" y1="199.5" x2="482" y2="197.5" gradientUnits="userSpaceOnUse">
                        <stop stop-color="#E44C00"></stop>
                        <stop offset="1" stop-color="#FFD100"></stop>
                    </linearGradient>
                    <linearGradient id="paint1_linear" x1="128.5" y1="199.5" x2="482" y2="197.5" gradientUnits="userSpaceOnUse">
                        <stop stop-color="#E44C00"></stop>
                        <stop offset="1" stop-color="#FFD100"></stop>
                    </linearGradient>
                </defs>
</svg>